<?xml version="1.0" encoding="UTF-8"?>
<svg width="56px" height="25px" viewBox="0 0 56 25" version="1.1" xmlns="http://www.w3.org/2000/svg" xmlns:xlink="http://www.w3.org/1999/xlink">
    <!-- Generator: Sketch 42 (36781) - http://www.bohemiancoding.com/sketch -->
    <title>fio_white</title>
    <desc>Created with Sketch.</desc>
    <defs></defs>
    <g id="landing" stroke="none" stroke-width="1" fill="none" fill-rule="evenodd">
        <g id="Artboard-Copy" transform="translate(-369.000000, -776.000000)" fill="#FFFFFF">
            <g id="fio_white" transform="translate(369.000000, 776.000000)">
                <path d="M55.8937333,12.3303411 C55.8963226,12.6915509 55.8935714,13.0527606 55.8791684,13.414294 C55.8082858,15.2308618 55.5190915,17.0068097 54.7916552,18.6885712 C53.5800166,21.4898887 51.4689139,23.2320137 48.5292298,23.9931111 C47.1489619,24.3504369 45.7499215,24.4852432 44.3372871,24.4789317 C43.9276895,24.4849195 43.5172827,24.4797409 43.1062286,24.4650142 C41.6107361,24.4135515 40.1364437,24.2149832 38.7100536,23.7359596 C37.3954896,23.2959375 36.2050511,22.6395456 35.2151228,21.6567379 C34.2695365,20.7198906 33.5848239,19.607617 33.0879987,18.3763967 C33.0027131,18.1650437 32.9256809,17.9517487 32.8523708,17.7374827 C32.8248593,17.6604505 32.800099,17.582771 32.7742058,17.5054151 C32.766276,17.4811403 32.7578608,17.4570273 32.7500928,17.4327524 C32.4730359,16.5894442 32.2848249,15.7233176 32.1865927,14.8345345 C32.1741316,14.7408336 32.1606995,14.6472945 32.1495331,14.5532699 C32.0655421,13.8391039 32.0218474,13.1244523 32.0082534,12.4089916 C32.0055023,12.3662679 32.002913,12.3233823 32,12.2806586 C32.0008092,12.2372875 32.002913,12.1942401 32.0037221,12.1510309 C32.0011328,11.789983 32.003884,11.4286114 32.0182871,11.0672398 C32.0891696,9.25051018 32.378364,7.47472411 33.1058003,5.79280078 C34.3174389,2.99148327 36.4285415,1.24935832 39.3682257,0.488260905 C40.7484935,0.131096969 42.147534,-0.00370935564 43.5601683,0.00244027262 C43.9697659,-0.00354752332 44.3801727,0.001631111 44.7912268,0.0163578524 C46.2867193,0.067820531 47.7610117,0.266550623 49.1874018,0.745574298 C50.5019658,1.18543455 51.6924044,1.84182645 52.6823327,2.82479598 C53.6279189,3.76148146 54.3126315,4.87375502 54.8094567,6.10497533 C54.8949042,6.31632834 54.9717745,6.52978518 55.0450846,6.74405117 C55.0725961,6.82092152 55.0973564,6.89860104 55.1232496,6.97595689 C55.1311794,7.00023174 55.1395947,7.02434475 55.1473626,7.04878143 C55.4244195,7.89208967 55.6126305,8.75821626 55.7108628,9.64699937 C55.7233238,9.74070029 55.7367559,9.83407754 55.7479224,9.92810212 C55.8320752,10.6422682 55.8756081,11.3570815 55.889202,12.0723804 C55.8919531,12.115266 55.8945424,12.1579897 55.8974554,12.2008753 C55.8966463,12.2440845 55.8945424,12.2871319 55.8937333,12.3303411 Z M49.7375365,7.49759671 C49.050882,5.769713 47.8517045,4.61827602 46.0155549,4.19249518 C45.4664579,4.06594231 44.9134768,4.00865366 44.3588775,4.00023838 C43.7623635,3.99586891 43.1635839,4.05170106 42.5648043,4.15673024 C41.7787847,4.29509687 41.0665607,4.58736605 40.4414024,5.04405686 C40.4227917,5.05797444 40.4046665,5.07221569 40.3862176,5.0862951 C40.3266633,5.13112265 40.2685655,5.17886319 40.2106295,5.22692739 C39.416842,5.89448572 38.8970366,6.77145508 38.560749,7.78857122 C38.4576618,8.1013931 38.3746418,8.41712797 38.3045684,8.73464298 C38.0757375,9.85258067 38.0155359,11.023923 38,12.4558154 C38.0249222,12.8479351 38.0568031,13.5769897 38.1260674,14.304426 C38.2076309,15.1613282 38.3566784,16.0075494 38.6759736,16.8129889 C39.3626282,18.5408726 40.5618057,19.6923096 42.398117,20.1180904 C42.9472141,20.2446433 43.5001952,20.3020937 44.0549564,20.3103472 C44.6513085,20.3148785 45.2500881,20.2588845 45.8487058,20.1540172 C46.6347254,20.0154887 47.3469495,19.7233814 47.9721077,19.2665287 C47.9907184,19.252773 48.0088437,19.2385317 48.0272925,19.2244523 C48.0868468,19.1796248 48.1449446,19.1317224 48.2028806,19.08382 C48.9966682,18.4160999 49.5164736,17.5392923 49.8527611,16.5220143 C49.9558483,16.2091925 50.0390301,15.8934576 50.1089417,15.5757808 C50.3379344,14.4580049 50.3979742,13.2866626 50.4135101,11.8547702 C50.388588,11.4626504 50.356707,10.7335958 50.2874428,10.0061595 C50.2058793,9.14941923 50.0568317,8.30303618 49.7375365,7.49759671 Z" id="Combined-Shape-Copy-4"></path>
                <polygon id="Fill-1-Copy-5" points="24 24.1735414 24 0 29.1590526 0 29.1749122 24.1735414"></polygon>
                <path d="M19.3392136,14.1962356 C14.6981862,14.191057 10.0571589,14.1928371 5.41791167,14.1928371 L5.14651887,14.1928371 L5.14651887,24.1685051 L0.014168585,24.1685051 C0.0106082739,24.0956806 0.00348765169,24.0230179 0.00348765169,23.9501933 C0.00348765169,19.3784302 -0.00719328161,14.8066671 0.00882811834,10.2347422 C0.014168585,8.84929565 0.0761503646,7.4636873 0.439787594,6.11012176 C1.01817631,3.95985568 2.20683472,2.28327282 4.21339369,1.24722229 C5.18730061,0.741658115 6.23225192,0.445343132 7.31264451,0.26263444 C8.48706167,0.0639043476 9.67393993,0.00726303464 10.8625983,0.00370272354 C13.6815556,-0.00341789865 16.5006746,0.00192256799 19.3196319,0.00192256799 L19.5502429,0.00192256799 L19.5502429,4.32883338 C19.4668993,4.33239369 19.3906762,4.34129447 19.3125112,4.34129447 C16.921115,4.34129447 14.5295569,4.32705322 12.1381607,4.34663493 C11.1500125,4.35553571 10.1583041,4.40699839 9.17371622,4.49034204 C8.64144971,4.53468409 8.10740304,4.65168886 7.59293809,4.79895628 C6.33517728,5.15919503 5.58832111,6.02305597 5.29734659,7.28275877 C5.21206096,7.65351662 5.17127921,8.04029587 5.15185933,8.4199545 C5.12693716,8.90237665 5.14651887,9.38496064 5.14651887,9.89408512 L19.5502429,9.89408512 C19.5555834,9.97225014 19.5609238,10.0377922 19.5609238,10.1034961 C19.5609238,11.3915196 19.5573635,12.6811614 19.5662643,13.9691848 C19.5662643,14.1484951 19.5165818,14.1962356 19.3392136,14.1962356 Z" id="Fill-1-Copy-6"></path>
            </g>
        </g>
    </g>
</svg>